HIERARCHY
ROOT hip
{
  OFFSET 0 0 0
  CHANNELS 6 Xposition Yposition Zposition Zrotation Yrotation Xrotation
  JOINT abdomen
  {
    OFFSET 0 20.6881 -0.73152
    CHANNELS 3 Zrotation Xrotation Yrotation
    JOINT chest
    {
      OFFSET 0 11.7043 -0.48768
      CHANNELS 3 Zrotation Xrotation Yrotation
      JOINT neck
      {
        OFFSET 0 22.1894 -2.19456
        CHANNELS 3 Zrotation Xrotation Yrotation
        JOINT head
        {
          OFFSET -0.24384 7.07133 1.2192
          CHANNELS 3 Zrotation Xrotation Yrotation
          JOINT leftEye
          {
            OFFSET 4.14528 8.04674 8.04672
            CHANNELS 3 Zrotation Xrotation Yrotation
            End Site
            {
              OFFSET 1 0 0
            }
          }
          JOINT rightEye
          {
            OFFSET -3.6576 8.04674 8.04672
            CHANNELS 3 Zrotation Xrotation Yrotation
            End Site
            {
              OFFSET 1 0 0
            }
          }
        }
      }
      JOINT rCollar
      {
        OFFSET -2.68224 19.2634 -4.8768
        CHANNELS 3 Zrotation Xrotation Yrotation
        JOINT rShldr
        {
          OFFSET -8.77824 -1.95073 1.46304
          CHANNELS 3 Zrotation Xrotation Yrotation
          JOINT rForeArm
          {
            OFFSET -28.1742 -1.7115 0.48768
            CHANNELS 3 Zrotation Xrotation Yrotation
            JOINT rHand
            {
              OFFSET -22.5879 0.773209 7.07136
              CHANNELS 3 Zrotation Xrotation Yrotation
              JOINT rThumb1
              {
                OFFSET -1.2192 -0.487915 3.41376
                CHANNELS 3 Zrotation Xrotation Yrotation
                JOINT rThumb2
                {
                  OFFSET -3.37035 -0.52449 3.41376
                  CHANNELS 3 Zrotation Xrotation Yrotation
                  End Site
                  {
                    OFFSET -1.78271 -1.18214 1.43049
                  }
                }
              }
              JOINT rIndex1
              {
                OFFSET -7.75947 0.938293 5.60832
                CHANNELS 3 Zrotation Xrotation Yrotation
                JOINT rIndex2
                {
                  OFFSET -2.54057 -0.884171 1.56538
                  CHANNELS 3 Zrotation Xrotation Yrotation
                  End Site
                  {
                    OFFSET -1.62519 -0.234802 1.16502
                  }
                }
              }
              JOINT rMid1
              {
                OFFSET -8.24714 1.18213 3.41376
                CHANNELS 3 Zrotation Xrotation Yrotation
                JOINT rMid2
                {
                  OFFSET -3.10165 -0.590103 1.0647
                  CHANNELS 3 Zrotation Xrotation Yrotation
                  End Site
                  {
                    OFFSET -2.48547 -0.328903 0.83742
                  }
                }
              }
              JOINT rRing1
              {
                OFFSET -8.82822 0.546677 1.51678
                CHANNELS 3 Zrotation Xrotation Yrotation
                JOINT rRing2
                {
                  OFFSET -2.60934 -0.819778 -0.0198488
                  CHANNELS 3 Zrotation Xrotation Yrotation
                  End Site
                  {
                    OFFSET -2.33842 -0.294052 0.168128
                  }
                }
              }
              JOINT rPinky1
              {
                OFFSET -8.27202 -0.0477905 -0.4584
                CHANNELS 3 Zrotation Xrotation Yrotation
                JOINT rPinky2
                {
                  OFFSET -1.82734 -0.647385 -0.700984
                  CHANNELS 3 Zrotation Xrotation Yrotation
                  End Site
                  {
                    OFFSET -1.69225 -0.51767 -0.607171
                  }
                }
              }
            }
          }
        }
      }
      JOINT lCollar
      {
        OFFSET 2.68224 19.2634 -4.8768
        CHANNELS 3 Zrotation Xrotation Yrotation
        JOINT lShldr
        {
          OFFSET 8.77824 -1.95073 1.46304
          CHANNELS 3 Zrotation Xrotation Yrotation
          JOINT lForeArm
          {
            OFFSET 28.1742 -1.7115 0.48768
            CHANNELS 3 Zrotation Xrotation Yrotation
            JOINT lHand
            {
              OFFSET 22.5879 0.773209 7.07136
              CHANNELS 3 Zrotation Xrotation Yrotation
              JOINT lThumb1
              {
                OFFSET 1.2192 -0.487915 3.41376
                CHANNELS 3 Zrotation Xrotation Yrotation
                JOINT lThumb2
                {
                  OFFSET 3.37035 -0.52449 3.41376
                  CHANNELS 3 Zrotation Xrotation Yrotation
                  End Site
                  {
                    OFFSET 1.78271 -1.18214 1.43049
                  }
                }
              }
              JOINT lIndex1
              {
                OFFSET 7.75947 0.938293 5.60832
                CHANNELS 3 Zrotation Xrotation Yrotation
                JOINT lIndex2
                {
                  OFFSET 2.54057 -0.884171 1.56538
                  CHANNELS 3 Zrotation Xrotation Yrotation
                  End Site
                  {
                    OFFSET 1.62519 -0.234802 1.16502
                  }
                }
              }
              JOINT lMid1
              {
                OFFSET 8.24714 1.18213 3.41376
                CHANNELS 3 Zrotation Xrotation Yrotation
                JOINT lMid2
                {
                  OFFSET 3.10165 -0.590103 1.0647
                  CHANNELS 3 Zrotation Xrotation Yrotation
                  End Site
                  {
                    OFFSET 2.48547 -0.328903 0.83742
                  }
                }
              }
              JOINT lRing1
              {
                OFFSET 8.82822 0.546677 1.51678
                CHANNELS 3 Zrotation Xrotation Yrotation
                JOINT lRing2
                {
                  OFFSET 2.60934 -0.819778 -0.0198488
                  CHANNELS 3 Zrotation Xrotation Yrotation
                  End Site
                  {
                    OFFSET 2.33842 -0.294052 0.168128
                  }
                }
              }
              JOINT lPinky1
              {
                OFFSET 8.27202 -0.0477905 -0.4584
                CHANNELS 3 Zrotation Xrotation Yrotation
                JOINT lPinky2
                {
                  OFFSET 1.82734 -0.647385 -0.700984
                  CHANNELS 3 Zrotation Xrotation Yrotation
                  End Site
                  {
                    OFFSET 1.69225 -0.51767 -0.607171
                  }
                }
              }
            }
          }
        }
      }
    }
  }
  JOINT rButtock
  {
    OFFSET -8.77824 4.35084 1.2192
    CHANNELS 3 Zrotation Xrotation Yrotation
    JOINT rThigh
    {
      OFFSET 0 -1.70687 -2.19456
      CHANNELS 3 Zrotation Xrotation Yrotation
      JOINT rShin
      {
        OFFSET 0 -36.8199 0.73152
        CHANNELS 3 Zrotation Xrotation Yrotation
        JOINT rFoot
        {
          OFFSET 0.73152 -45.1104 -5.12064
          CHANNELS 3 Zrotation Xrotation Yrotation
          End Site
          {
            OFFSET -1.1221 -3.69964 12.103
          }
        }
      }
    }
  }
  JOINT lButtock
  {
    OFFSET 8.77824 4.35084 1.2192
    CHANNELS 3 Zrotation Xrotation Yrotation
    JOINT lThigh
    {
      OFFSET 0 -1.70687 -2.19456
      CHANNELS 3 Zrotation Xrotation Yrotation
      JOINT lShin
      {
        OFFSET 0 -36.8199 0.73152
        CHANNELS 3 Zrotation Xrotation Yrotation
        JOINT lFoot
        {
          OFFSET -0.73152 -45.1104 -5.12064
          CHANNELS 3 Zrotation Xrotation Yrotation
          End Site
          {
            OFFSET 1.1221 -3.69964 12.103
          }
        }
      }
    }
  }
}
MOTION
Frames:	6
Frame Time:	0.00833333
9.13291 85.3982 194.307 0.0 0.0 0.0 1.5751 -0.00270735 0.0428978 0.434182 0.00151757 0.0751902 -3.76601e-14 7.95139e-16 -1.98785e-16 -1.13115e-13 9.54166e-15 -5.51317e-16 -0.0 0.0 0.0 -0.0 0.0 0.0 -1.87872e-14 -2.44598e-17 0.0 -3.95718e-13 -5.65294e-16 -2.38542e-15 -6.83382e-12 2.02164e-12 1.59028e-14 -7.80873e-11 -2.13616e-12 -4.89805e-13 -1.8422e-10 -2.5061e-13 -1.00824e-12 -3.18149e-10 -4.32555e-13 -1.74135e-12 -1.84216e-10 -2.51661e-13 -1.00824e-12 7.73091 5.47488 0.417314 -1.84219e-10 -2.50568e-13 -1.00506e-12 2.90554 0.965183 0.102902 -1.8421e-10 -2.5027e-13 -1.00983e-12 10.2786 0.731801 0.0259123 -1.84226e-10 -2.49674e-13 -1.00506e-12 2.22167 -0.733487 -0.20892 -1.89831e-14 -2.67893e-17 -2.98177e-16 -3.9727e-13 -4.78326e-16 -3.97569e-15 -6.81131e-12 -2.06358e-12 2.8625e-14 -7.80904e-11 1.95462e-12 -4.96167e-13 -1.84174e-10 -2.38856e-13 -1.00187e-12 -3.18058e-10 -4.13472e-13 -1.71511e-12 -1.8418e-10 -2.35361e-13 -9.92333e-13 -7.73091 5.47488 -0.417314 -1.84174e-10 -2.38542e-13 -9.98694e-13 -2.90554 0.965183 -0.102902 -1.84179e-10 -2.38641e-13 -9.99489e-13 -10.2786 0.731801 -0.0259123 -1.84167e-10 -2.38542e-13 -1.01142e-12 -2.22167 -0.733487 0.20892 -2.03217e-16 0.0 -3.88251e-19 1.70376 -6.60414 -0.159274 0.00259433 6.39989 0.0734306 -0.526869 0.199649 0.0639548 2.03217e-16 0.0 3.88251e-19 0.691159 -1.9236 0.00559606 0.00918379 -2.07857 0.0758014 0.503879 3.99746 -0.139091
8.40539 83.6802 184.475 178.697 -5.5233 -175.372 1.22836 -1.29676 -0.281936 1.23555 -0.773081 -0.0144069 -0.959432 -0.999031 -0.409754 0.510891 0.632667 -0.750909 -0.0 0.0 0.0 -0.0 0.0 0.0 -1.48215e-14 -1.63402e-14 -6.07858e-14 21.8363 5.91183 -0.86123 -4.34749 -2.00143 6.76194 0.00095611 0.685906 0.0963728 -2.53935e-10 -1.0791e-10 1.88155e-10 -4.38559e-10 -1.86659e-10 3.2626e-10 -2.5393e-10 -1.07911e-10 1.88153e-10 7.73091 5.47488 0.417314 -2.53935e-10 -1.07911e-10 1.88158e-10 2.90554 0.965183 0.102902 -2.53925e-10 -1.0791e-10 1.88155e-10 10.2786 0.731801 0.0259123 -2.53942e-10 -1.07909e-10 1.88161e-10 2.22167 -0.733487 -0.20892 -1.49816e-14 -1.63415e-14 -6.10114e-14 -22.875 6.80698 -0.239137 3.99452 -1.77239 -6.28449 -0.0458312 4.75185 -0.65956 1.2374e-10 1.00777e-10 -2.3282e-10 2.10752e-10 1.68044e-10 -4.06497e-10 1.23734e-10 1.00778e-10 -2.32811e-10 -7.73091 5.47488 -0.417314 1.2374e-10 1.00775e-10 -2.32817e-10 -2.90554 0.965183 -0.102902 1.23736e-10 1.00775e-10 -2.32818e-10 -10.2786 0.731801 -0.0259123 1.23746e-10 1.00776e-10 -2.32828e-10 -2.22167 -0.733487 0.20892 -2.03217e-16 0.0 -3.88251e-19 0.465953 -9.75584 -0.420088 0.00956506 14.405 0.209518 -1.21347 -4.69549 -3.92054 2.03217e-16 0.0 3.88251e-19 0.967776 -6.65616 -1.3368 -0.00911968 7.7535 -0.0805618 0.609909 -1.43062 0.562511
8.40629 83.6823 184.468 178.695 -5.4937 -175.399 0.845562 -2.66401 -0.625522 2.08058 -1.59038 -0.109267 -1.98949 -2.05638 -0.844056 1.06934 1.29912 -1.54584 -0.0 0.0 0.0 -0.0 0.0 0.0 -9.55526e-15 -3.51216e-14 -1.25262e-13 45.1173 12.1553 -1.80194 -8.43328 -4.02409 13.9361 -0.00054319 1.41148 0.198365 -3.5963e-10 -1.87358e-10 4.08259e-10 -6.21135e-10 -3.24111e-10 7.07981e-10 -3.59623e-10 -1.87358e-10 4.08254e-10 7.73091 5.47488 0.417314 -3.5963e-10 -1.87358e-10 4.08262e-10 2.90554 0.965183 0.102902 -3.5962e-10 -1.87358e-10 4.08261e-10 10.2786 0.731801 0.0259123 -3.59638e-10 -1.87356e-10 4.08268e-10 2.22167 -0.733487 -0.20892 -9.67779e-15 -3.5122e-14 -1.25408e-13 -46.9927 14.0072 -0.50706 7.79861 -3.57589 -12.9494 0.0262475 9.77026 -1.37166 4.44891e-10 1.79161e-10 -5.04806e-10 7.61885e-10 2.9669e-10 -8.80883e-10 4.44884e-10 1.7916e-10 -5.04796e-10 -7.73091 5.47488 -0.417314 4.44891e-10 1.79158e-10 -5.04802e-10 -2.90554 0.965183 -0.102902 4.44886e-10 1.79157e-10 -5.04804e-10 -10.2786 0.731801 -0.0259123 4.44894e-10 1.79159e-10 -5.04811e-10 -2.22167 -0.733487 0.20892 -2.03217e-16 0.0 -3.88251e-19 -0.874892 -13.0881 -0.702435 -0.0280251 22.8677 0.369363 -2.68702 -9.79339 -8.22675 2.03217e-16 0.0 3.88251e-19 1.0138 -11.65 -2.79599 0.0322004 18.1469 -0.257069 0.8677 -7.16572 1.31513
8.40726 83.6835 184.464 178.703 -5.5013 -175.416 0.490791 -3.88441 -0.933531 2.83101 -2.32226 -0.193756 -2.92121 -2.99648 -1.23076 1.58243 1.8967 -2.25382 -0.0 0.0 0.0 -0.0 0.0 0.0 -6.89005e-15 -4.89716e-14 -1.82357e-13 66.0645 17.7191 -2.69803 -11.6523 -5.67047 20.3775 -0.0040577 2.05769 0.289284 -3.93366e-10 -3.2323e-10 5.66482e-10 -6.7938e-10 -5.59111e-10 9.82262e-10 -3.93357e-10 -3.23229e-10 5.66475e-10 7.73091 5.47488 0.417314 -3.93366e-10 -3.23231e-10 5.66485e-10 2.90554 0.965183 0.102902 -3.93355e-10 -3.2323e-10 5.66485e-10 10.2786 0.731801 0.0259123 -3.93374e-10 -3.23228e-10 5.66493e-10 2.22167 -0.733487 -0.20892 -6.97874e-15 -4.89708e-14 -1.82438e-13 -68.4448 20.4195 -0.760121 10.8367 -5.0618 -18.921 0.199504 14.2479 -2.03449 7.39569e-10 3.02807e-10 -6.96457e-10 1.26837e-09 5.0496e-10 -1.21606e-09 7.39562e-10 3.02804e-10 -6.96448e-10 -7.73091 5.47488 -0.417314 7.39569e-10 3.02803e-10 -6.96453e-10 -2.90554 0.965183 -0.102902 7.39564e-10 3.02801e-10 -6.96456e-10 -10.2786 0.731801 -0.0259123 7.39571e-10 3.02804e-10 -6.9646e-10 -2.22167 -0.733487 0.20892 -2.03217e-16 0.0 -3.88251e-19 -2.09918 -16.0578 -0.963189 -0.10821 30.4145 0.536709 -4.66685 -14.2027 -12.2293 2.03217e-16 0.0 3.88251e-19 0.832429 -16.0864 -4.1576 0.12998 27.417 -0.440452 1.227 -12.2797 2.01053
8.41934 83.6837 184.462 178.739 -5.4488 -175.425 0.237141 -4.73812 -1.15075 3.35003 -2.84065 -0.252161 -3.57657 -3.64406 -1.49703 1.94716 2.3233 -2.74342 -0.0 0.0 0.0 -0.0 0.0 0.0 -1.07275e-14 -5.04931e-14 -2.20999e-13 80.7785 21.5993 -3.37439 -13.6734 -6.69392 24.8994 -0.00770569 2.50556 0.35236 -2.47202e-10 -6.00164e-10 5.70003e-10 -4.26801e-10 -1.03798e-09 9.87942e-10 -2.47194e-10 -6.00163e-10 5.69994e-10 7.73091 5.47488 0.417314 -2.47202e-10 -6.00165e-10 5.70006e-10 2.90554 0.965183 0.102902 -2.47192e-10 -6.00164e-10 5.70007e-10 10.2786 0.731801 0.0259123 -2.47211e-10 -6.00162e-10 5.70016e-10 2.22167 -0.733487 -0.20892 -1.07917e-14 -5.04903e-14 -2.21049e-13 -83.3684 24.8635 -0.933899 12.7621 -5.99765 -23.0949 0.385443 17.3808 -2.52131 9.68066e-10 5.39607e-10 -6.87273e-10 1.66325e-09 9.12294e-10 -1.20322e-09 9.68058e-10 5.39603e-10 -6.87264e-10 -7.73091 5.47488 -0.417314 9.68065e-10 5.396e-10 -6.8727e-10 -2.90554 0.965183 -0.102902 9.68061e-10 5.396e-10 -6.87273e-10 -10.2786 0.731801 -0.0259123 9.68067e-10 5.39603e-10 -6.87277e-10 -2.22167 -0.733487 0.20892 -2.03217e-16 0.0 -3.88251e-19 -2.96801 -18.1224 -1.1523 -0.196579 35.6723 0.67476 -6.42966 -17.1613 -15.1464 2.03217e-16 0.0 3.88251e-19 0.577533 -19.1619 -5.15086 0.240686 33.8794 -0.594156 1.55102 -15.8482 2.51256
8.41823 83.6839 184.461 178.737 -5.4547 -175.428 0.139483 -5.08083 -1.23776 3.54689 -3.05738 -0.27314 -3.83258 -3.88118 -1.59409 2.09109 2.50817 -2.92675 -0.0 0.0 0.0 -0.0 0.0 0.0 -2.68027e-14 -3.5109e-14 -2.37399e-13 86.5693 23.1384 -3.66073 -14.4213 -7.06401 26.6848 -0.00935437 2.67406 0.376109 2.35775e-10 -1.21027e-09 3.35628e-10 4.07824e-10 -2.09294e-09 5.80294e-10 2.35782e-10 -1.21026e-09 3.35616e-10 7.73091 5.47488 0.417314 2.35774e-10 -1.21026e-09 3.3563e-10 2.90554 0.965183 0.102902 2.35784e-10 -1.21026e-09 3.35631e-10 10.2786 0.731801 0.0259123 2.35766e-10 -1.21026e-09 3.3564e-10 2.22167 -0.733487 -0.20892 -2.68574e-14 -3.51026e-14 -2.37472e-13 -89.2184 26.5582 -0.966448 13.4668 -6.33149 -24.7148 0.475099 18.6348 -2.72278 1.16448e-09 1.04068e-09 -3.48259e-10 2.0072e-09 1.78143e-09 -6.19928e-10 1.16447e-09 1.04068e-09 -3.48249e-10 -7.73091 5.47488 -0.417314 1.16448e-09 1.04068e-09 -3.48258e-10 -2.90554 0.965183 -0.102902 1.16448e-09 1.04068e-09 -3.48261e-10 -10.2786 0.731801 -0.0259123 1.16448e-09 1.04068e-09 -3.48265e-10 -2.22167 -0.733487 0.20892 -2.03217e-16 0.0 -3.88251e-19 -3.30961 -18.9212 -1.2303 -0.239856 37.7257 0.734983 -7.20476 -18.2847 -16.3164 2.03217e-16 0.0 3.88251e-19 0.454679 -20.355 -5.54246 0.295308 36.412 -0.662774 1.68946 -17.2605 2.70242
